<?xml version="1.0" standalone="no"?><!DOCTYPE svg PUBLIC "-//W3C//DTD SVG 1.1//EN" "http://www.w3.org/Graphics/SVG/1.1/DTD/svg11.dtd"><svg t="1512705478780" class="icon" style="" viewBox="0 0 1024 1024" version="1.1" xmlns="http://www.w3.org/2000/svg" p-id="1369" xmlns:xlink="http://www.w3.org/1999/xlink" width="200" height="200"><defs><style type="text/css"></style></defs><path d="M860.591 70.452L512.002 419.044 163.409 70.452c-25.669-25.668-67.288-25.668-92.958 0-25.667 25.668-25.667 67.285 0 92.958l348.594 348.592L70.451 860.59c-25.667 25.669-25.667 67.29 0 92.957 25.67 25.67 67.29 25.67 92.958 0L512.002 604.96l348.59 348.587c25.667 25.67 67.288 25.67 92.956 0 25.668-25.667 25.668-67.288 0-92.957L604.96 512.002 953.548 163.41c25.668-25.67 25.668-67.29 0-92.958-25.668-25.67-67.284-25.67-92.957 0z m0 0" fill="#333333" p-id="1370"></path></svg>